<?xml version="1.0" encoding="utf-8"?>
<!-- Generator: Adobe Illustrator 23.1.0, SVG Export Plug-In . SVG Version: 6.00 Build 0)  -->
<svg version="1.1" id="Layer_1" xmlns="http://www.w3.org/2000/svg" xmlns:xlink="http://www.w3.org/1999/xlink" x="0px" y="0px"
	 viewBox="0 0 790.3 199.8" style="enable-background:new 0 0 790.3 199.8;" xml:space="preserve">
<style type="text/css">
	.st0{fill:#4168B2;}
	.st1{font-family:'Lato-Regular';}
	.st2{font-size:60px;}
	.st3{fill:none;stroke:#4B494B;stroke-width:2;stroke-miterlimit:10;}
	.st4{fill:#C12427;stroke:#C12628;stroke-width:4;stroke-miterlimit:10;}
</style>
<title>Exacore new Logo</title>
<text transform="matrix(1 0 0 1 285.21 188.8802)" class="st0 st1 st2">AI</text>
<text transform="matrix(1 0 0 1 391.87 188.8802)" class="st0 st1 st2">ERP</text>
<line class="st3" x1="368.1" y1="144.9" x2="368.1" y2="190.2"/>
<path class="st4" d="M37.2,96.5C13.8,96.5,2,88.9,2,73.5V36.2c0-15.1,11.5-22.7,34.6-22.7h50.9c4,0,5.6,1.7,5.6,4.9
	s-1.6,4.9-5.6,4.9H36.8c-14.5,0-21.8,4.3-21.8,13.1V50h71.5c3.8,0,5.8,1.6,5.8,4.7s-1.9,4.7-5.8,4.7H15v13.8c0,9,7.4,13.6,22.8,13.6
	h48.7c4.1,0,6.1,1.7,6.1,4.9s-2,4.9-6.1,4.9L37.2,96.5z"/>
<path class="st4" d="M159.7,62.6l-36.8,32.5c-1.5,1.4-3.5,2.1-5.5,2c-4,0-6.5-1.8-6.5-4.7c0-1.9,0.6-2.9,2.6-4.7l37.3-33l-36.6-32.2
	c-2.3-1.9-2.6-3.2-2.6-4.6c0-3.2,2.5-5.2,6.6-5.2c2.1-0.1,4.1,0.7,5.5,2.2l36.5,32.2l36.6-32.1c1.5-1.4,3.5-2.2,5.5-2.2
	c3.7,0,6.4,1.8,6.4,4.7c0,1.8-0.8,3.1-2.6,4.7L169,55l37.1,32.5c2.4,2.2,2.8,3.4,2.8,4.4c0,3.2-2.6,5.2-6.7,5.2
	c-2.1,0.1-4.1-0.7-5.5-2.2L159.7,62.6z"/>
<path class="st4" d="M310.8,74.4h-60.6l-12.4,19.3c-1.3,2.2-3.7,3.5-6.2,3.5c-4,0-6.6-1.8-6.6-4.9c0-1.4,0.5-2.7,1.3-3.7l47.5-72.4
	c1.6-2.1,4-3.3,6.6-3.2c2.5-0.1,4.9,1.1,6.4,3.2l47.6,72.2c1,1.1,1.5,2.4,1.6,3.8c0,3.1-2.6,4.9-6.6,4.9c-2.5,0-4.8-1.3-6.1-3.5
	L310.8,74.4z M256.2,65.1h48.7l-24.5-37.9L256.2,65.1z"/>
<path class="st4" d="M385.4,96.5c-23.4,0-35.2-7.7-35.2-23V36.2c0-15.1,11.5-22.7,34.5-22.7h46c3.8,0,6,1.7,6,4.9s-2.2,4.9-6,4.9
	H385c-14.5,0-21.8,4.3-21.8,13.1v36.7c0,9,7.4,13.6,22.8,13.6h44.8c3.8,0,6,1.7,6,4.9s-2.2,4.9-6,4.9L385.4,96.5z"/>
<path class="st4" d="M492.6,96.5c-23.4,0-35.2-7.7-35.2-23V36.4c0-15.2,11.5-22.9,34.6-22.9h26.8c23,0,34.6,7.7,34.6,22.9v37.1
	c0,15.4-11.8,23-35.2,23H492.6z M540.3,36.6c0-8.9-7.3-13.3-21.8-13.3h-26.3c-14.5,0-21.8,4.4-21.8,13.3v36.5
	c0,9,7.3,13.6,22.1,13.6h25.8c14.8,0,22.1-4.6,22.1-13.6L540.3,36.6z"/>
<path class="st4" d="M589.5,64v28.1c0,3.4-2.3,5-6.6,5s-6.4-1.7-6.4-5V17.7c0-2.8,1.9-4.2,5.5-4.2h56.4c24.8,0,37.3,6.7,37.3,20.4
	v8.9c0,13.3-12.5,20-37.3,20h-28.7l55.7,24.5c2.5,1.1,3.6,2.5,3.6,4.7c0,3.1-2.4,5.2-6.6,5.2c-1.6,0-3.2-0.4-4.5-1.2L589.5,64z
	 M589.5,53.7h49.3c16.1,0,24-3.6,24-10.9v-8.6c0-7.2-7.9-10.8-23.9-10.8h-48.5c-0.6,0-1,0.2-1,0.8L589.5,53.7z"/>
<path class="st4" d="M732.8,96.5c-23.4,0-35.2-7.7-35.2-23V36.2c0-15.1,11.5-22.7,34.6-22.7h50.3c4,0,5.7,1.7,5.7,4.9
	s-2,4.9-5.9,4.9h-49.8c-14.5,0-21.8,4.3-21.8,13.1V50h71.5c3.8,0,5.8,1.6,5.8,4.7c0,3.1-1.9,4.7-5.8,4.7h-71.5v13.8
	c0,9,7.4,13.6,22.8,13.6h48.7c4.1,0,6.1,1.7,6.1,4.9s-2,4.9-6.1,4.9L732.8,96.5z"/>
</svg>
